<?xml version="1.0" encoding="UTF-8" standalone="no"?>
<svg
   width="18"
   height="16"
   viewBox="0 0 18 16"
   fill="none"
   version="1.1"
   id="svg845"
   sodipodi:docname="sort_v2.svg"
   inkscape:version="1.1.2 (b8e25be833, 2022-02-05)"
   xmlns:inkscape="http://www.inkscape.org/namespaces/inkscape"
   xmlns:sodipodi="http://sodipodi.sourceforge.net/DTD/sodipodi-0.dtd"
   xmlns="http://www.w3.org/2000/svg"
   xmlns:svg="http://www.w3.org/2000/svg">
  <defs
     id="defs849" />
  <sodipodi:namedview
     id="namedview847"
     pagecolor="#ffffff"
     bordercolor="#666666"
     borderopacity="1.0"
     inkscape:pageshadow="2"
     inkscape:pageopacity="0.0"
     inkscape:pagecheckerboard="0"
     showgrid="false"
     inkscape:zoom="49.875"
     inkscape:cx="8.9924812"
     inkscape:cy="7.9598997"
     inkscape:window-width="1920"
     inkscape:window-height="991"
     inkscape:window-x="-9"
     inkscape:window-y="-9"
     inkscape:window-maximized="1"
     inkscape:current-layer="svg845" />
  <path
     d="M9.04523 4.4L13.5226 0L18 4.4L16.721 5.65689L14.4262 3.40267L14.4271 15.1111H12.6181V3.40267L10.3242 5.65689L9.04523 4.4ZM0 11.6L1.27899 10.3431L3.57286 12.5973L3.57286 0.888888H5.38191L5.38191 12.5973L7.67578 10.3431L8.95477 11.6L4.47739 16L0 11.6Z"
     fill="#999999"
     id="path843" />
  <path
     style="fill:#27ae60;stroke-width:0.0200501"
     d="M 2.254893,13.798538 C 1.0312432,12.59606 0.03013777,11.606985 0.03021426,11.600593 c 7.649e-5,-0.0064 0.28012565,-0.288854 0.62233146,-0.627695 l 0.62219238,-0.616074 1.1420795,1.121668 c 0.6281438,0.616918 1.1488466,1.121971 1.1571172,1.12234 0.00827,3.7e-4 0.015038,-2.6339147 0.015038,-5.8539648 V 0.89223058 H 4.481203 5.3734336 V 6.7485379 c 0,3.4139621 0.00744,5.8535201 0.017847,5.8496241 0.00982,-0.0037 0.5234133,-0.50518 1.1413271,-1.114453 0.6179138,-0.609273 1.1313414,-1.107769 1.14095,-1.107769 0.00961,0 0.2967633,0.274624 0.6381215,0.610275 L 8.9323306,11.59649 8.4210524,12.104897 C 8.1398494,12.384522 7.13801,13.371905 6.1947425,14.299083 l -1.7150316,1.685778 z"
     id="path945" />
</svg>
